<svg width="24" height="24" viewBox="0 0 24 24" fill="none" xmlns="http://www.w3.org/2000/svg">
<g id="WalletConnect">
<path id="Vector" fill-rule="evenodd" clip-rule="evenodd" d="M12 0C18.6281 0 24 5.37188 24 12C24 18.6281 18.6281 24 12 24C5.37188 24 0 18.6281 0 12C0 5.37188 5.37188 0 12 0Z" fill="url(#paint0_radial_65_5223)"/>
<path id="Vector_2" d="M7.62647 9.26714C10.0405 6.90933 13.9593 6.90933 16.3733 9.26714L16.664 9.55308C16.7858 9.67026 16.7858 9.86245 16.664 9.97964L15.6702 10.95C15.6093 11.0109 15.5108 11.0109 15.4499 10.95L15.0515 10.5609C13.364 8.91558 10.6358 8.91558 8.94834 10.5609L8.52178 10.9781C8.46084 11.039 8.3624 11.039 8.30147 10.9781L7.30771 10.0078C7.18584 9.89058 7.18584 9.69839 7.30771 9.5812L7.62647 9.26714ZM18.4312 11.2734L19.3171 12.1359C19.439 12.2531 19.439 12.4453 19.3171 12.5625L15.328 16.4578C15.2062 16.575 15.0093 16.575 14.8921 16.4578L12.0608 13.6921C12.0327 13.664 11.9812 13.664 11.953 13.6921L9.12178 16.4578C8.9999 16.575 8.80303 16.575 8.68584 16.4578L4.68271 12.5625C4.56084 12.4453 4.56084 12.2531 4.68271 12.1359L5.56865 11.2734C5.69053 11.1562 5.8874 11.1562 6.00459 11.2734L8.83584 14.039C8.86397 14.0671 8.91553 14.0671 8.94365 14.039L11.7749 11.2734C11.8968 11.1562 12.0937 11.1562 12.2108 11.2734L15.0421 14.039C15.0702 14.0671 15.1218 14.0671 15.1499 14.039L17.9812 11.2734C18.1124 11.1562 18.3093 11.1562 18.4312 11.2734Z" fill="white"/>
</g>
<defs>
<radialGradient id="paint0_radial_65_5223" cx="0" cy="0" r="1" gradientUnits="userSpaceOnUse" gradientTransform="translate(7.43866e-05 12.0004) scale(24)">
<stop stop-color="#5D9DF6"/>
<stop offset="1" stop-color="#006FFF"/>
</radialGradient>
</defs>
</svg>
