<svg width="24" height="24" viewBox="0 0 24 24" fill="none" xmlns="http://www.w3.org/2000/svg">
<g id="weth">
<g id="Group">
<path id="Oval" d="M6.72817 23.8033C12.7606 23.8033 12.7606 23.7135 13.7835 23.4099C15.1202 23.0131 10.0095 19.4755 6.72817 19.4755C3.44688 19.4755 0.786865 20.4443 0.786865 21.6394C0.786865 22.8345 3.44701 23.8033 6.72817 23.8033Z" fill="black"/>
<path id="Oval_2" d="M20.426 5.40173L20.7035 5.70074L20.4609 6.0287C12.5935 16.6661 8.06137 21.4824 6.13843 20.8364C4.96717 20.4429 3.79255 19.2596 2.61791 17.5414C2.20503 16.9374 1.81732 16.3014 1.4647 15.6686C1.22988 15.2471 1.03113 14.8627 0.92794 14.6462C0.796303 14.3701 0.740726 14.1999 0.696633 13.9765C0.693943 13.9628 0.693943 13.9628 0.691387 13.9497C0.672983 13.8548 0.666616 13.8248 0.65286 13.773C0.416125 12.8807 0.295044 11.9564 0.295044 11.0164C0.295044 5.0952 5.09514 0.295105 11.0164 0.295105C12.8714 0.295105 14.659 0.767219 16.2433 1.65346L16.2842 1.67905C17.5813 2.58211 18.961 3.82299 20.426 5.40173ZM15.7421 2.50017C14.3089 1.70305 12.694 1.27871 11.0164 1.27871C5.63837 1.27871 1.27865 5.63843 1.27865 11.0164C1.27865 11.871 1.38863 12.7106 1.60357 13.5207C1.62483 13.6008 1.63444 13.6461 1.65699 13.7623C1.65935 13.7745 1.65935 13.7745 1.66163 13.7861C1.69009 13.9303 1.72011 14.0222 1.81584 14.223C1.90998 14.4205 2.09916 14.7864 2.32394 15.1898C2.66285 15.7981 3.03529 16.409 3.42991 16.9863C4.49118 18.5387 5.54369 19.599 6.45165 19.904C7.66264 20.3108 12.2215 15.4849 19.4261 5.77327C18.1181 4.39264 16.8894 3.3016 15.7421 2.50017Z" fill="black"/>
<path id="Path" d="M15.7421 2.50014C14.3089 1.70302 12.694 1.27869 11.0164 1.27869C5.6384 1.27869 1.27869 5.63841 1.27869 11.0164C1.27869 11.871 1.38866 12.7106 1.60361 13.5207C1.62486 13.6008 1.63447 13.6461 1.65702 13.7623C1.65939 13.7745 1.65939 13.7745 1.66167 13.786C1.69012 13.9302 1.72014 14.0222 1.81587 14.223C1.91001 14.4205 2.0992 14.7864 2.32397 15.1898C2.66289 15.7981 3.03533 16.409 3.42995 16.9862C4.49122 18.5387 5.54372 19.599 6.45169 19.904C7.66267 20.3108 12.2215 15.4849 19.4261 5.77325C18.1181 4.39262 16.8894 3.30157 15.7421 2.50014Z" fill="#EC1C79"/>
<path id="Oval_3" d="M12.9835 23.705C7.0623 23.705 2.26221 18.9049 2.26221 12.9836C2.26221 7.06242 7.0623 2.26233 12.9835 2.26233C18.9047 2.26233 23.7048 7.06242 23.7048 12.9836C23.7048 18.9049 18.9047 23.705 12.9835 23.705ZM12.9835 22.7213C18.3615 22.7213 22.7212 18.3616 22.7212 12.9836C22.7212 7.60565 18.3615 3.24594 12.9835 3.24594C7.60553 3.24594 3.24581 7.60565 3.24581 12.9836C3.24581 18.3616 7.60553 22.7213 12.9835 22.7213Z" fill="black"/>
<path id="Path_2" d="M12.9836 22.7213C18.3615 22.7213 22.7213 18.3616 22.7213 12.9836C22.7213 7.60563 18.3615 3.24591 12.9836 3.24591C7.60557 3.24591 3.24585 7.60563 3.24585 12.9836C3.24585 18.3616 7.60557 22.7213 12.9836 22.7213Z" fill="white"/>
<path id="WETH" fill-rule="evenodd" clip-rule="evenodd" d="M5.69932 14.9784L4.4104 11.0951H5.53958L6.21158 13.3259L6.95519 11.0841H7.87506L8.61866 13.3259L9.29066 11.0951H10.3978L9.10889 14.9784H8.17801L7.40135 12.7586L6.6302 14.9784H5.69932ZM10.8219 14.9509V11.0951H13.9231V12.004H11.8795V12.5878H13.7303V13.4306H11.8795V14.042H13.9506V14.9509H10.8219ZM15.4378 14.9509V12.0315H14.2811V11.0951H17.6631V12.0315H16.5064V14.9509H15.4378ZM18.1313 14.9509V11.0951H19.1999V12.5383H20.5714V11.0951H21.64V14.9509H20.5714V13.4857H19.1999V14.9509H18.1313Z" fill="black"/>
<path id="Line" d="M0.934001 9.93533C0.661908 9.79929 0.55162 9.46842 0.687667 9.19633C0.823713 8.92424 1.15458 8.81395 1.42667 8.95L3.00044 9.73688C3.27253 9.87293 3.38282 10.2038 3.24677 10.4759C3.11073 10.748 2.77986 10.8583 2.50777 10.7222L0.934001 9.93533Z" fill="black"/>
<path id="Line_2" d="M0.752755 12.5448C0.476543 12.4173 0.355967 12.0901 0.483443 11.8139C0.610918 11.5376 0.938172 11.4171 1.21438 11.5445L2.78815 12.2709C3.06437 12.3983 3.18494 12.7256 3.05747 13.0018C2.92999 13.278 2.60274 13.3986 2.32653 13.2711L0.752755 12.5448Z" fill="black"/>
</g>
</g>
</svg>
